<svg height="16" viewBox="0 0 48 48" width="16" xmlns="http://www.w3.org/2000/svg">
  <linearGradient gradientUnits="userSpaceOnUse" id="a" x1="1.663" x2="55.413" y1="15.426" y2="36.058">
    <stop offset=".061" stop-color="#f0e400"/>
    <stop offset=".201" stop-color="#f68b1f"/>
    <stop offset=".35" stop-color="#00c25e"/>
    <stop offset=".438" stop-color="#00addc"/>
    <stop offset=".55" stop-color="#4641ba"/>
    <stop offset=".606" stop-color="#622f96"/>
    <stop offset=".877" stop-color="#662d91"/>
  </linearGradient>
  <path
    d="M35 35c-4.824 0-8.171-3.253-11-6.843C21.171 31.747 17.824 35 13 35 7.346 35 2 29.654 2 24s5.346-11 11-11c4.824 0 8.171 3.253 11 6.843C26.829 16.253 30.176 13 35 13c5.654 0 11 5.346 11 11s-5.346 11-11 11zm-7.89-11c2.44 3.249 4.857 6 7.89 6 3.175 0 6-3.355 6-6s-2.825-6-6-6c-3.032 0-5.449 2.751-7.89 6zM13 18c-3.175 0-6 3.355-6 6s2.825 6 6 6c3.032 0 5.449-2.751 7.89-6-2.441-3.249-4.858-6-7.89-6z"
    fill="url(#a)"/>
  <linearGradient gradientUnits="userSpaceOnUse" id="b" x1="11.129" x2="41.352" y1="10.86" y2="41.69">
    <stop offset=".07" stop-color="#f99d20"/>
    <stop offset=".101" stop-color="#f99920"/>
    <stop offset=".135" stop-color="#f78c21"/>
    <stop offset=".17" stop-color="#f57621"/>
    <stop offset=".206" stop-color="#f35822"/>
    <stop offset=".242" stop-color="#ef3123"/>
    <stop offset=".26" stop-color="#ed1c24"/>
    <stop offset=".425" stop-color="#ed1c24"/>
    <stop offset=".437" stop-color="#e31d2c"/>
    <stop offset=".497" stop-color="#b62350"/>
    <stop offset=".555" stop-color="#93276c"/>
    <stop offset=".609" stop-color="#7a2a81"/>
    <stop offset=".658" stop-color="#6b2c8d"/>
    <stop offset=".698" stop-color="#662d91"/>
    <stop offset="1" stop-color="#623293"/>
  </linearGradient>
  <path
    d="M35 30c-7.34 0-11-17-22-17v5c7.479 0 11 17 22 17 .073 0 .146-.011.219-.013a87.56 87.56 0 0 1-.199-4.989A.123.123 0 0 1 35 30z"
    fill="url(#b)"/>
</svg>
