<svg xmlns="http://www.w3.org/2000/svg" viewBox="0 0 64 64"><linearGradient id="AjYNQqqFYvP3tDOI0QoDYa" x1="32" x2="32" y1="14.833" y2="21.333" gradientUnits="userSpaceOnUse" spreadMethod="reflect"><stop offset="0" stop-color="#6dc7ff"/><stop offset="1" stop-color="#e6abff"/></linearGradient><path fill="url(#AjYNQqqFYvP3tDOI0QoDYa)" d="M5 15H59V21H5z"/><linearGradient id="AjYNQqqFYvP3tDOI0QoDYb" x1="48" x2="48" y1="28.75" y2="35.435" gradientUnits="userSpaceOnUse" spreadMethod="reflect"><stop offset="0" stop-color="#6dc7ff"/><stop offset="1" stop-color="#e6abff"/></linearGradient><path fill="url(#AjYNQqqFYvP3tDOI0QoDYb)" d="M50,35h-4c-0.552,0-1-0.448-1-1v-4c0-0.552,0.448-1,1-1h4c0.552,0,1,0.448,1,1v4 C51,34.552,50.552,35,50,35z"/><linearGradient id="AjYNQqqFYvP3tDOI0QoDYc" x1="32" x2="32" y1="12.5" y2="51.628" gradientUnits="userSpaceOnUse" spreadMethod="reflect"><stop offset="0" stop-color="#1a6dff"/><stop offset="1" stop-color="#c822ff"/></linearGradient><path fill="url(#AjYNQqqFYvP3tDOI0QoDYc)" d="M58,13H6c-1.654,0-3,1.346-3,3v6v1v10h1c1.654,0,3,1.346,3,3s-1.346,3-3,3H3v9 c0,1.654,1.346,3,3,3h52c1.654,0,3-1.346,3-3v-9h-1c-1.654,0-3-1.346-3-3c0-1.689,1.612-3,3-3h1V23v-1v-6C61,14.346,59.654,13,58,13 z M59,31.11c-2.222,0.491-4,2.566-4,4.89c0,2.415,1.721,4.435,4,4.899V48c0,0.552-0.448,1-1,1H41v-6h-2v6H6c-0.552,0-1-0.448-1-1 v-7.101C7.279,40.435,9,38.415,9,36s-1.721-4.435-4-4.899V23h32v-2H5v-5c0-0.552,0.448-1,1-1h52c0.552,0,1,0.448,1,1v5H39v1v1v6h2 v-6h18V31.11z"/><linearGradient id="AjYNQqqFYvP3tDOI0QoDYd" x1="40" x2="40" y1="12.5" y2="51.628" gradientUnits="userSpaceOnUse" spreadMethod="reflect"><stop offset="0" stop-color="#1a6dff"/><stop offset="1" stop-color="#c822ff"/></linearGradient><path fill="url(#AjYNQqqFYvP3tDOI0QoDYd)" d="M39 33H41V39H39z"/><linearGradient id="AjYNQqqFYvP3tDOI0QoDYe" x1="21" x2="21" y1="12.5" y2="51.628" gradientUnits="userSpaceOnUse" spreadMethod="reflect"><stop offset="0" stop-color="#1a6dff"/><stop offset="1" stop-color="#c822ff"/></linearGradient><path fill="url(#AjYNQqqFYvP3tDOI0QoDYe)" d="M13 29H29V31H13z"/><linearGradient id="AjYNQqqFYvP3tDOI0QoDYf" x1="21" x2="21" y1="12.5" y2="51.628" gradientUnits="userSpaceOnUse" spreadMethod="reflect"><stop offset="0" stop-color="#1a6dff"/><stop offset="1" stop-color="#c822ff"/></linearGradient><path fill="url(#AjYNQqqFYvP3tDOI0QoDYf)" d="M13 33H29V35H13z"/><linearGradient id="AjYNQqqFYvP3tDOI0QoDYg" x1="20" x2="20" y1="12.5" y2="51.628" gradientUnits="userSpaceOnUse" spreadMethod="reflect"><stop offset="0" stop-color="#1a6dff"/><stop offset="1" stop-color="#c822ff"/></linearGradient><path fill="url(#AjYNQqqFYvP3tDOI0QoDYg)" d="M13 37H27V39H13z"/><linearGradient id="AjYNQqqFYvP3tDOI0QoDYh" x1="19" x2="19" y1="12.5" y2="51.628" gradientUnits="userSpaceOnUse" spreadMethod="reflect"><stop offset="0" stop-color="#1a6dff"/><stop offset="1" stop-color="#c822ff"/></linearGradient><path fill="url(#AjYNQqqFYvP3tDOI0QoDYh)" d="M13 41H25V43H13z"/><linearGradient id="AjYNQqqFYvP3tDOI0QoDYi" x1="50" x2="50" y1="12.5" y2="51.628" gradientUnits="userSpaceOnUse" spreadMethod="reflect"><stop offset="0" stop-color="#1a6dff"/><stop offset="1" stop-color="#c822ff"/></linearGradient><path fill="url(#AjYNQqqFYvP3tDOI0QoDYi)" d="M49 39H51V43H49z"/><linearGradient id="AjYNQqqFYvP3tDOI0QoDYj" x1="46" x2="46" y1="12.5" y2="51.628" gradientUnits="userSpaceOnUse" spreadMethod="reflect"><stop offset="0" stop-color="#1a6dff"/><stop offset="1" stop-color="#c822ff"/></linearGradient><path fill="url(#AjYNQqqFYvP3tDOI0QoDYj)" d="M45 39H47V43H45z"/><linearGradient id="AjYNQqqFYvP3tDOI0QoDYk" x1="14" x2="14" y1="12.5" y2="51.628" gradientUnits="userSpaceOnUse" spreadMethod="reflect"><stop offset="0" stop-color="#1a6dff"/><stop offset="1" stop-color="#c822ff"/></linearGradient><path fill="url(#AjYNQqqFYvP3tDOI0QoDYk)" d="M7 17H21V19H7z"/><linearGradient id="AjYNQqqFYvP3tDOI0QoDYl" x1="34" x2="34" y1="12.5" y2="51.628" gradientUnits="userSpaceOnUse" spreadMethod="reflect"><stop offset="0" stop-color="#1a6dff"/><stop offset="1" stop-color="#c822ff"/></linearGradient><path fill="url(#AjYNQqqFYvP3tDOI0QoDYl)" d="M31 17H37V19H31z"/><linearGradient id="AjYNQqqFYvP3tDOI0QoDYm" x1="26" x2="26" y1="12.5" y2="51.628" gradientUnits="userSpaceOnUse" spreadMethod="reflect"><stop offset="0" stop-color="#1a6dff"/><stop offset="1" stop-color="#c822ff"/></linearGradient><path fill="url(#AjYNQqqFYvP3tDOI0QoDYm)" d="M23 17H29V19H23z"/></svg>